<svg width="71" height="70" viewBox="0 0 71 70" fill="none" xmlns="http://www.w3.org/2000/svg">
<g clip-path="url(#clip0_458_5162)">
<path d="M35.0645 70C54.4239 70 70.1178 54.33 70.1178 35C70.1178 15.67 54.4239 0 35.0645 0C15.7051 0 0.0112305 15.67 0.0112305 35C0.0112305 54.33 15.7051 70 35.0645 70Z" fill="#E0E0E0"/>
<path d="M35.0645 68.9362C54.1297 68.9362 69.5851 53.5043 69.5851 34.4681C69.5851 15.4319 54.1297 0 35.0645 0C15.9993 0 0.543945 15.4319 0.543945 34.4681C0.543945 53.5043 15.9993 68.9362 35.0645 68.9362Z" fill="white"/>
<mask id="mask0_458_5162" style="mask-type:luminance" maskUnits="userSpaceOnUse" x="12" y="11" width="46" height="48">
<path d="M57.4388 30.4255H35.5971V39.4681H48.1694C46.9974 45.2128 42.0963 48.5107 35.5971 48.5107C27.9259 48.5107 21.7463 42.3404 21.7463 34.6809C21.7463 27.0213 27.9259 20.8511 35.5971 20.8511C38.9 20.8511 41.8832 22.0213 44.2272 23.9362L51.0461 17.1277C46.8909 13.5107 41.5636 11.2766 35.5971 11.2766C22.5986 11.2766 12.1572 21.7021 12.1572 34.6809C12.1572 47.6596 22.5986 58.0851 35.5971 58.0851C47.317 58.0851 57.9715 49.5745 57.9715 34.6809C57.9715 33.2979 57.7584 31.8085 57.4388 30.4255Z" fill="white"/>
</mask>
<g mask="url(#mask0_458_5162)">
<path d="M10.0264 48.5106V20.8511L28.139 34.6809L10.0264 48.5106Z" fill="#E3A400"/>
</g>
<mask id="mask1_458_5162" style="mask-type:luminance" maskUnits="userSpaceOnUse" x="12" y="11" width="46" height="48">
<path d="M57.4388 30.4255H35.5971V39.4681H48.1694C46.9974 45.2128 42.0963 48.5107 35.5971 48.5107C27.9259 48.5107 21.7463 42.3404 21.7463 34.6809C21.7463 27.0213 27.9259 20.8511 35.5971 20.8511C38.9 20.8511 41.8832 22.0213 44.2272 23.9362L51.0461 17.1277C46.8909 13.5107 41.5636 11.2766 35.5971 11.2766C22.5986 11.2766 12.1572 21.7021 12.1572 34.6809C12.1572 47.6596 22.5986 58.0851 35.5971 58.0851C47.317 58.0851 57.9715 49.5745 57.9715 34.6809C57.9715 33.2979 57.7584 31.8085 57.4388 30.4255Z" fill="white"/>
</mask>
<g mask="url(#mask1_458_5162)">
<path d="M10.0264 20.8511L28.139 34.6808L35.5971 28.1915L61.1679 24.0425V9.14893H10.0264V20.8511Z" fill="#EA4335"/>
</g>
<mask id="mask2_458_5162" style="mask-type:luminance" maskUnits="userSpaceOnUse" x="12" y="11" width="46" height="48">
<path d="M57.4388 30.4255H35.5971V39.4681H48.1694C46.9974 45.2128 42.0963 48.5107 35.5971 48.5107C27.9259 48.5107 21.7463 42.3404 21.7463 34.6809C21.7463 27.0213 27.9259 20.8511 35.5971 20.8511C38.9 20.8511 41.8832 22.0213 44.2272 23.9362L51.0461 17.1277C46.8909 13.5107 41.5636 11.2766 35.5971 11.2766C22.5986 11.2766 12.1572 21.7021 12.1572 34.6809C12.1572 47.6596 22.5986 58.0851 35.5971 58.0851C47.317 58.0851 57.9715 49.5745 57.9715 34.6809C57.9715 33.2979 57.7584 31.8085 57.4388 30.4255Z" fill="white"/>
</mask>
<g mask="url(#mask2_458_5162)">
<path d="M10.0264 48.5106L41.9898 24.0425L50.4069 25.1064L61.1679 9.14893V60.2128H10.0264V48.5106Z" fill="#E3A400"/>
</g>
<mask id="mask3_458_5162" style="mask-type:luminance" maskUnits="userSpaceOnUse" x="12" y="11" width="46" height="48">
<path d="M57.4388 30.4255H35.5971V39.4681H48.1694C46.9974 45.2128 42.0963 48.5107 35.5971 48.5107C27.9259 48.5107 21.7463 42.3404 21.7463 34.6809C21.7463 27.0213 27.9259 20.8511 35.5971 20.8511C38.9 20.8511 41.8832 22.0213 44.2272 23.9362L51.0461 17.1277C46.8909 13.5107 41.5636 11.2766 35.5971 11.2766C22.5986 11.2766 12.1572 21.7021 12.1572 34.6809C12.1572 47.6596 22.5986 58.0851 35.5971 58.0851C47.317 58.0851 57.9715 49.5745 57.9715 34.6809C57.9715 33.2979 57.7584 31.8085 57.4388 30.4255Z" fill="white"/>
</mask>
<g mask="url(#mask3_458_5162)">
<path d="M61.1677 60.2128L28.1387 34.6809L23.877 31.4894L61.1677 20.8511V60.2128Z" fill="#4285F4"/>
</g>
</g>
<defs>
<clipPath id="clip0_458_5162">
<rect width="70" height="70" fill="white" transform="translate(0.0112305)"/>
</clipPath>
</defs>
</svg>
