<svg width="22" height="22" viewBox="0 0 22 22" fill="none" xmlns="http://www.w3.org/2000/svg">
<g clip-path="url(#clip0_458_15623)">
<path d="M5.57873 21.9221C4.72778 21.9126 3.88484 21.7566 3.0869 21.4608C2.50421 21.2454 1.97703 20.9025 1.54388 20.4572C1.09736 20.0249 0.753971 19.4976 0.539216 18.9144C0.243672 18.1165 0.0878236 17.2736 0.0785098 16.4228C0.0131569 15.0083 0 14.5841 0 11C0 7.41594 0.014451 6.9932 0.0778627 5.57765C0.0883068 4.72715 0.244347 3.88472 0.539216 3.0869C0.755016 2.50412 1.09792 1.97672 1.54302 1.54302C1.97563 1.0969 2.50306 0.753828 3.08625 0.539216C3.88419 0.243427 4.72713 0.0873591 5.57808 0.0778627C6.99298 0.0131569 7.41788 0 11 0C14.5821 0 15.0068 0.014451 16.4224 0.0778627C17.2731 0.088233 18.1157 0.244275 18.9137 0.539216C19.4967 0.754112 20.024 1.09706 20.4568 1.5428C20.9026 1.97574 21.2457 2.50317 21.4608 3.08625C21.7566 3.88418 21.9128 4.72712 21.9224 5.57808C21.9871 6.99363 22.0002 7.41745 22.0002 11.0004C22.0002 14.5834 21.9871 15.0072 21.9224 16.4228C21.9121 17.2736 21.756 18.1164 21.4608 18.9144C21.2375 19.4931 20.8955 20.0187 20.4568 20.4572C20.0182 20.8958 19.4925 21.2377 18.9137 21.4608C18.1158 21.7566 17.2729 21.9128 16.4219 21.9224C15.0077 21.9871 14.5825 22.0002 10.9996 22.0002C7.41659 22.0002 6.99276 21.9877 5.57851 21.9224" fill="url(#paint0_radial_458_15623)"/>
<path d="M5.57873 21.9221C4.72778 21.9126 3.88484 21.7566 3.0869 21.4608C2.50421 21.2454 1.97703 20.9025 1.54388 20.4572C1.09736 20.0249 0.753971 19.4976 0.539216 18.9144C0.243672 18.1165 0.0878236 17.2736 0.0785098 16.4228C0.0131569 15.0083 0 14.5841 0 11C0 7.41594 0.014451 6.9932 0.0778627 5.57765C0.0883068 4.72715 0.244347 3.88472 0.539216 3.0869C0.755016 2.50412 1.09792 1.97672 1.54302 1.54302C1.97563 1.0969 2.50306 0.753828 3.08625 0.539216C3.88419 0.243427 4.72713 0.0873591 5.57808 0.0778627C6.99298 0.0131569 7.41788 0 11 0C14.5821 0 15.0068 0.014451 16.4224 0.0778627C17.2731 0.088233 18.1157 0.244275 18.9137 0.539216C19.4967 0.754112 20.024 1.09706 20.4568 1.5428C20.9026 1.97574 21.2457 2.50317 21.4608 3.08625C21.7566 3.88418 21.9128 4.72712 21.9224 5.57808C21.9871 6.99363 22.0002 7.41745 22.0002 11.0004C22.0002 14.5834 21.9871 15.0072 21.9224 16.4228C21.9121 17.2736 21.756 18.1164 21.4608 18.9144C21.2375 19.4931 20.8955 20.0187 20.4568 20.4572C20.0182 20.8958 19.4925 21.2377 18.9137 21.4608C18.1158 21.7566 17.2729 21.9128 16.4219 21.9224C15.0077 21.9871 14.5825 22.0002 10.9996 22.0002C7.41659 22.0002 6.99276 21.9877 5.57851 21.9224" fill="url(#paint1_radial_458_15623)"/>
<path d="M8.29871 11.0466C8.29875 10.5078 8.45858 9.98104 8.75798 9.53305C9.05738 9.08505 9.48289 8.7359 9.98073 8.52975C10.4786 8.32359 11.0264 8.2697 11.5548 8.37488C12.0833 8.48006 12.5687 8.73958 12.9497 9.12064C13.3306 9.5017 13.59 9.98717 13.6951 10.5157C13.8001 11.0442 13.7461 11.5919 13.5398 12.0897C13.3336 12.5875 12.9843 13.0129 12.5363 13.3122C12.0882 13.6115 11.5614 13.7712 11.0226 13.7711C10.3001 13.771 9.60724 13.4839 9.09642 12.973C8.58559 12.462 8.29865 11.7691 8.29871 11.0466ZM6.82579 11.0466C6.82579 11.8766 7.07192 12.6881 7.53308 13.3782C7.99423 14.0684 8.64969 14.6063 9.41655 14.924C10.1834 15.2416 11.0273 15.3247 11.8414 15.1628C12.6555 15.0008 13.4033 14.6011 13.9902 14.0142C14.5771 13.4273 14.9769 12.6795 15.1388 11.8654C15.3007 11.0512 15.2176 10.2074 14.9 9.44053C14.5823 8.67367 14.0444 8.01821 13.3542 7.55706C12.6641 7.0959 11.8527 6.84977 11.0226 6.84977C10.4715 6.84974 9.92572 6.95827 9.41652 7.16917C8.90733 7.38007 8.44466 7.68921 8.05494 8.07892C7.66523 8.46864 7.35609 8.93131 7.14519 9.4405C6.93429 9.9497 6.82576 10.4954 6.82579 11.0466ZM14.4048 6.68347C14.4047 6.87744 14.4621 7.06708 14.5698 7.22841C14.6775 7.38973 14.8306 7.5155 15.0098 7.58981C15.189 7.66412 15.3862 7.68363 15.5764 7.64587C15.7667 7.60811 15.9415 7.51478 16.0787 7.37769C16.2159 7.24059 16.3094 7.06589 16.3473 6.87566C16.3852 6.68543 16.3659 6.48823 16.2917 6.309C16.2176 6.12976 16.092 5.97654 15.9307 5.8687C15.7695 5.76087 15.5799 5.70327 15.3859 5.70318C15.1259 5.7033 14.8766 5.8066 14.6927 5.9904C14.5089 6.17421 14.4054 6.42348 14.4052 6.68347M7.7211 17.6994C7.20283 17.6937 6.68941 17.5989 6.20331 17.419C5.85079 17.2832 5.53062 17.075 5.26342 16.8079C4.99622 16.5408 4.78791 16.2207 4.65188 15.8683C4.47195 15.3822 4.3771 14.8687 4.37149 14.3505C4.33181 13.489 4.32404 13.2302 4.32404 11.0477C4.32404 8.86514 4.33267 8.60696 4.37149 7.74465C4.37778 7.22644 4.47261 6.71312 4.65188 6.22686C4.78775 5.87423 4.996 5.55399 5.26322 5.28677C5.53043 5.01955 5.85068 4.8113 6.20331 4.67543C6.68938 4.49551 7.20282 4.40066 7.7211 4.39504C8.58255 4.35536 8.84137 4.34759 11.023 4.34759C13.2047 4.34759 13.4637 4.35601 14.3261 4.39526C14.8443 4.40155 15.3576 4.49638 15.8438 4.67565C16.1965 4.81153 16.5167 5.01979 16.7839 5.287C17.0511 5.55421 17.2594 5.87446 17.3953 6.22708C17.5752 6.71316 17.67 7.22659 17.6757 7.74487C17.7154 8.60761 17.7231 8.86514 17.7231 11.0479C17.7231 13.2306 17.7151 13.4886 17.6757 14.3509C17.6696 14.8691 17.5748 15.3825 17.3953 15.8687C17.2592 16.2212 17.0509 16.5412 16.7837 16.8083C16.5165 17.0754 16.1964 17.2836 15.8438 17.4195C15.3578 17.5994 14.8443 17.6942 14.3261 17.6999C13.4646 17.7396 13.2058 17.7473 11.023 17.7473C8.84029 17.7473 8.58233 17.7393 7.7211 17.6999M7.65337 2.92342C6.97522 2.93675 6.30425 3.0651 5.66906 3.30302C5.12607 3.51296 4.63294 3.83406 4.22129 4.24571C3.80964 4.65736 3.48855 5.15048 3.27861 5.69347C3.04072 6.32867 2.91237 6.99964 2.899 7.67779C2.85867 8.54916 2.84961 8.82783 2.84961 11.0475C2.84961 13.2671 2.85888 13.5455 2.899 14.4171C2.91237 15.0953 3.04072 15.7662 3.27861 16.4014C3.48856 16.9444 3.80966 17.4375 4.22131 17.8492C4.63295 18.2608 5.12608 18.5819 5.66906 18.7919C6.30428 19.0297 6.97523 19.158 7.65337 19.1715C8.52518 19.2112 8.80341 19.2209 11.023 19.2209C13.2427 19.2209 13.5211 19.2116 14.3927 19.1715C15.0709 19.1581 15.7418 19.0297 16.377 18.7919C16.92 18.5819 17.4131 18.2608 17.8248 17.8492C18.2364 17.4375 18.5575 16.9444 18.7675 16.4014C19.0057 15.7663 19.134 15.0953 19.1471 14.4171C19.1868 13.5451 19.1958 13.2671 19.1958 11.0475C19.1958 8.82783 19.1866 8.54938 19.1471 7.67779C19.1337 6.99964 19.0054 6.32866 18.7675 5.69347C18.5575 5.15059 18.2365 4.65754 17.825 4.2459C17.4135 3.83426 16.9205 3.51311 16.3777 3.30302C15.7425 3.06495 15.0715 2.93659 14.3934 2.92342C13.5218 2.88351 13.2433 2.87402 11.0241 2.87402C8.80492 2.87402 8.52582 2.8833 7.6538 2.92342" fill="white"/>
</g>
<defs>
<radialGradient id="paint0_radial_458_15623" cx="0" cy="0" r="1" gradientUnits="userSpaceOnUse" gradientTransform="translate(1.42374 21.5182) scale(27.9318 27.9318)">
<stop offset="0.09" stop-color="#FA8F21"/>
<stop offset="0.78" stop-color="#D82D7E"/>
</radialGradient>
<radialGradient id="paint1_radial_458_15623" cx="0" cy="0" r="1" gradientUnits="userSpaceOnUse" gradientTransform="translate(15.2387 20.8116) scale(24.5803 24.5803)">
<stop offset="0.64" stop-color="#8C3AAA" stop-opacity="0"/>
<stop offset="1" stop-color="#8C3AAA"/>
</radialGradient>
<clipPath id="clip0_458_15623">
<rect width="22" height="22" fill="white"/>
</clipPath>
</defs>
</svg>
