<svg width="21" height="21" viewBox="0 0 21 21" fill="none" xmlns="http://www.w3.org/2000/svg">
<path d="M10.4371 0.5C8.49754 0.503685 6.60094 1.07131 4.97829 2.13374C3.35564 3.19617 2.07696 4.70754 1.298 6.48377C0.519047 8.26 0.273437 10.2244 0.591087 12.1378C0.908737 14.0511 1.77594 15.8308 3.08706 17.26C4.02348 18.275 5.16 19.0851 6.425 19.6392C7.68999 20.1933 9.05604 20.4793 10.4371 20.4793C11.8181 20.4793 13.1841 20.1933 14.4491 19.6392C15.7141 19.0851 16.8506 18.275 17.7871 17.26C19.0982 15.8308 19.9654 14.0511 20.283 12.1378C20.6007 10.2244 20.3551 8.26 19.5761 6.48377C18.7972 4.70754 17.5185 3.19617 15.8958 2.13374C14.2732 1.07131 12.3766 0.503685 10.4371 0.5ZM10.4371 18.5C8.36553 18.4969 6.37598 17.6903 4.88706 16.25C5.3391 15.1495 6.10809 14.2083 7.09631 13.5459C8.08453 12.8835 9.24737 12.5298 10.4371 12.5298C11.6268 12.5298 12.7896 12.8835 13.7778 13.5459C14.766 14.2083 15.535 15.1495 15.9871 16.25C14.4981 17.6903 12.5086 18.4969 10.4371 18.5ZM8.43706 8.5C8.43706 8.10444 8.55436 7.71776 8.77412 7.38886C8.99388 7.05996 9.30624 6.80362 9.67169 6.65224C10.0371 6.50087 10.4393 6.46126 10.8272 6.53843C11.2152 6.6156 11.5716 6.80608 11.8513 7.08579C12.131 7.36549 12.3215 7.72186 12.3986 8.10982C12.4758 8.49778 12.4362 8.89991 12.2848 9.26537C12.1334 9.63082 11.8771 9.94318 11.5482 10.1629C11.2193 10.3827 10.8326 10.5 10.4371 10.5C9.90663 10.5 9.39792 10.2893 9.02285 9.91421C8.64777 9.53914 8.43706 9.03043 8.43706 8.5ZM17.3471 14.5C16.4536 12.9718 15.0785 11.783 13.4371 11.12C13.9462 10.5427 14.278 9.83066 14.3925 9.06944C14.5071 8.30822 14.3995 7.53011 14.0828 6.8285C13.7661 6.12688 13.2536 5.53156 12.607 5.11397C11.9603 4.69637 11.2069 4.47425 10.4371 4.47425C9.66727 4.47425 8.91383 4.69637 8.26715 5.11397C7.62048 5.53156 7.10803 6.12688 6.79131 6.8285C6.47459 7.53011 6.36705 8.30822 6.48159 9.06944C6.59613 9.83066 6.92789 10.5427 7.43706 11.12C5.79566 11.783 4.42053 12.9718 3.52706 14.5C2.815 13.2871 2.43878 11.9065 2.43706 10.5C2.43706 8.37827 3.27992 6.34344 4.78021 4.84315C6.2805 3.34285 8.31533 2.5 10.4371 2.5C12.5588 2.5 14.5936 3.34285 16.0939 4.84315C17.5942 6.34344 18.4371 8.37827 18.4371 10.5C18.4353 11.9065 18.0591 13.2871 17.3471 14.5Z" fill="black"/>
</svg>
