<svg width="22" height="20" viewBox="0 0 22 20" fill="none" xmlns="http://www.w3.org/2000/svg">
<path fill-rule="evenodd" clip-rule="evenodd" d="M11.317 1.17412L18.1614 4.50745C18.4465 4.64543 18.6864 4.85814 18.8542 5.12165C19.022 5.38517 19.1109 5.68905 19.1111 5.99912V13.9408C19.1109 14.2509 19.022 14.5547 18.8542 14.8182C18.6864 15.0818 18.4465 15.2945 18.1614 15.4324L11.317 18.7658C11.0793 18.8816 10.8171 18.942 10.5513 18.942C10.2855 18.942 10.0233 18.8816 9.78558 18.7658L2.94115 15.4324C2.65636 15.2927 2.41734 15.0782 2.25105 14.8131C2.08476 14.5481 1.99782 14.2431 2.00004 13.9324V5.99912C2.00021 5.68905 2.08918 5.38517 2.25695 5.12165C2.42471 4.85814 2.66462 4.64543 2.94971 4.50745L9.79413 1.17412C10.0307 1.0596 10.2914 1 10.5556 1C10.8198 1 11.0804 1.0596 11.317 1.17412Z" stroke="#E3A400" stroke-width="2" stroke-linecap="round" stroke-linejoin="round"/>
<path d="M2.27344 5.09948L10.5552 9.13281M10.5552 9.13281L18.837 5.09948M10.5552 9.13281V18.9328M6.27743 2.88281L14.833 7.04948" stroke="#E3A400" stroke-width="2" stroke-linecap="round" stroke-linejoin="round"/>
</svg>
