<svg width="22" height="22" viewBox="0 0 22 22" fill="none" xmlns="http://www.w3.org/2000/svg">
<g clip-path="url(#clip0_458_15632)">
<path d="M18.7943 3.19705C16.7262 1.1366 13.9762 0.00125713 11.0463 0C5.00872 0 0.095353 4.89019 0.0929359 10.9009C0.0922324 12.8223 0.596476 14.6978 1.55491 16.351L0.000976562 22L5.80748 20.4842C7.40728 21.3528 9.20855 21.8105 11.0416 21.8113H11.0462H11.0463C17.0829 21.8113 21.997 16.9202 21.9996 10.9098C22.0006 7.99667 20.8622 5.25764 18.7943 3.19705ZM11.0463 19.97H11.0427C9.40886 19.9692 7.80663 19.5325 6.40909 18.7068L6.0765 18.5105L2.6308 19.41L3.55076 16.0665L3.33406 15.7237C2.42267 14.2809 1.94154 12.6136 1.94222 10.9016C1.94423 5.90569 6.02803 1.84128 11.0497 1.84128C13.4815 1.84228 15.7671 2.78599 17.4861 4.49857C19.2049 6.21114 20.1508 8.48776 20.1501 10.909C20.148 15.9051 16.064 19.97 11.0463 19.97Z" fill="#E0E0E0"/>
<path d="M0.503906 21.3735L1.98685 15.9826C1.07197 14.4048 0.590851 12.6149 0.591428 10.7816C0.593827 5.04557 5.2828 0.378906 11.0441 0.378906C13.8403 0.380163 16.4647 1.46359 18.4379 3.42997C20.4116 5.39633 21.4978 8.01006 21.4967 10.7898C21.4943 16.526 16.805 21.193 11.0445 21.193C11.0441 21.193 11.0448 21.193 11.0445 21.193H11.0398C9.29053 21.1925 7.57168 20.7553 6.04506 19.9269L0.503906 21.3735Z" fill="url(#paint0_linear_458_15632)"/>
<path fill-rule="evenodd" clip-rule="evenodd" d="M8.3396 6.2725C8.13695 5.82394 7.9236 5.81496 7.7308 5.80711C7.57311 5.80037 7.39258 5.80079 7.21235 5.80079C7.03196 5.80079 6.73884 5.86828 6.49096 6.1378C6.24293 6.40733 5.54395 7.0589 5.54395 8.38407C5.54395 9.70939 6.5135 10.99 6.64865 11.1698C6.78394 11.3494 8.52027 14.1558 11.2701 15.2354C13.5555 16.1327 14.0205 15.9542 14.5166 15.9093C15.0127 15.8644 16.1172 15.2579 16.3427 14.6289C16.5682 14 16.5682 13.461 16.5005 13.3483C16.4329 13.2361 16.2525 13.1687 15.9819 13.034C15.7114 12.8993 14.3813 12.2476 14.1333 12.1578C13.8853 12.068 13.7049 12.0231 13.5245 12.2928C13.3441 12.5622 12.8259 13.1687 12.6681 13.3483C12.5103 13.5283 12.3524 13.5508 12.0818 13.4161C11.8113 13.281 10.9399 12.9968 9.90626 12.0792C9.102 11.3654 8.55901 10.4837 8.40118 10.214C8.24334 9.94465 8.38426 9.79874 8.51998 9.66446C8.64145 9.54379 8.79055 9.35003 8.92584 9.19275C9.06084 9.03546 9.10594 8.92322 9.19613 8.74363C9.28632 8.56375 9.24122 8.40649 9.17358 8.27179C9.10594 8.1371 8.58016 6.80509 8.3396 6.2725Z" fill="white"/>
<path d="M18.7046 3.16232C16.6602 1.12552 13.9418 0.00322821 11.0455 0.00195312C5.07721 0.00195312 0.220247 4.836 0.217848 10.7777C0.217145 12.6771 0.715597 14.531 1.66302 16.1653L0.126953 21.7494L5.8668 20.2509C7.44825 21.1096 9.22884 21.5621 11.0408 21.5628H11.0454H11.0455C17.0128 21.5628 21.8704 16.7279 21.873 10.7864C21.874 7.90684 20.7487 5.19926 18.7046 3.16232ZM11.0455 19.7428H11.042C9.42684 19.7419 7.84299 19.3102 6.4615 18.4941L6.13272 18.3L2.72658 19.1891L3.63596 15.884L3.42176 15.5452C2.52084 14.119 2.04522 12.4708 2.04592 10.7785C2.04789 5.83989 6.08481 1.82213 11.0489 1.82213C13.4528 1.82312 15.7121 2.75599 17.4113 4.44891C19.1105 6.14183 20.0455 8.3923 20.0448 10.7858C20.0427 15.7245 16.0056 19.7428 11.0455 19.7428Z" fill="white"/>
</g>
<defs>
<linearGradient id="paint0_linear_458_15632" x1="11.0003" y1="21.3735" x2="11.0003" y2="0.378941" gradientUnits="userSpaceOnUse">
<stop stop-color="#E3A400"/>
<stop offset="1" stop-color="#E3A400"/>
</linearGradient>
<clipPath id="clip0_458_15632">
<rect width="22" height="22" fill="white"/>
</clipPath>
</defs>
</svg>
